<svg xmlns="http://www.w3.org/2000/svg" viewBox="-6 -6 212 200" fill="#1a1612" stroke="none">
  <g transform="scale(0.139327)">
    <g transform="translate(-49.525254,1355.513503) scale(0.100000,-0.100000)"
fill="currentColor" stroke="none">
<path d="M7933 13501 c-86 -64 -108 -87 -200 -212 -34 -46 -90 -116 -125 -156
-35 -39 -72 -93 -82 -120 -11 -26 -30 -64 -42 -83 -13 -19 -29 -51 -35 -70 -7
-19 -25 -51 -40 -70 -19 -25 -35 -68 -54 -150 -15 -63 -35 -135 -46 -159 -50
-115 -3 -209 201 -398 88 -82 113 -90 128 -40 16 52 50 263 62 387 23 235 99
391 179 365 38 -12 71 -200 71 -402 0 -44 7 -105 15 -136 8 -32 15 -101 15
-155 0 -100 48 -374 69 -395 17 -17 38 0 76 64 20 34 51 80 69 103 19 23 51
68 72 101 35 56 191 216 334 344 80 72 64 137 -48 195 -16 8 -44 38 -61 66
-17 28 -57 83 -90 123 -67 82 -147 228 -186 336 -15 41 -43 98 -61 126 -43 64
-83 186 -94 288 -14 125 -20 128 -127 48z"/>
<path d="M5365 12535 c-77 -19 -177 -38 -222 -44 -53 -6 -120 -25 -185 -50
-57 -22 -119 -43 -138 -47 -19 -4 -57 -19 -85 -34 -27 -15 -63 -31 -80 -35
-81 -19 -280 -112 -325 -152 -26 -23 -69 -50 -96 -61 -54 -21 -227 -129 -347
-219 -44 -32 -114 -83 -158 -114 -43 -30 -89 -64 -101 -75 -13 -11 -36 -28
-51 -38 -15 -9 -35 -33 -45 -52 -12 -26 -36 -47 -83 -74 -36 -22 -79 -56 -94
-77 -16 -21 -56 -65 -89 -99 -34 -33 -90 -95 -126 -137 -68 -81 -105 -123
-206 -228 -66 -69 -157 -196 -194 -269 -12 -25 -35 -61 -50 -80 -30 -38 -73
-120 -85 -160 -4 -14 -20 -45 -36 -70 -15 -25 -36 -75 -45 -110 -9 -36 -31
-92 -49 -125 -18 -33 -38 -79 -45 -103 -6 -23 -22 -64 -35 -89 -14 -25 -25
-54 -25 -64 0 -9 -16 -73 -36 -141 -19 -68 -39 -161 -45 -208 -5 -47 -14 -102
-20 -123 -7 -25 -7 -55 0 -95 6 -31 17 -118 26 -192 30 -259 98 -474 195 -616
18 -25 45 -75 62 -111 56 -124 348 -456 457 -520 25 -15 67 -41 92 -59 103
-72 158 -82 83 -15 -22 20 -52 56 -67 81 -14 25 -63 86 -109 137 -50 55 -97
119 -117 160 -19 37 -49 88 -67 113 -75 107 -179 370 -230 585 -7 33 -21 82
-29 109 -36 118 -8 418 61 641 25 83 55 182 66 220 38 130 80 230 115 275 19
25 54 86 78 135 24 50 62 111 83 135 22 25 49 65 62 90 12 25 34 59 47 75 13
17 43 56 66 87 74 101 303 351 377 413 40 33 89 79 109 102 46 53 204 191 279
242 31 21 75 58 97 81 22 23 67 55 100 70 33 15 80 44 104 64 25 21 63 47 85
58 22 11 63 38 91 58 27 21 75 50 105 65 30 15 84 45 120 66 36 20 92 45 125
54 33 10 92 34 130 55 92 50 308 136 365 145 25 3 92 17 150 30 291 66 851 42
1060 -44 25 -10 67 -22 95 -26 55 -8 160 -57 248 -117 32 -22 83 -50 112 -63
31 -14 64 -38 80 -59 14 -19 40 -39 57 -45 45 -16 67 -39 78 -82 7 -26 21 -44
43 -58 42 -25 122 -118 166 -191 19 -30 54 -79 78 -109 49 -60 97 -148 108
-199 4 -18 18 -45 31 -61 13 -16 35 -67 48 -112 34 -115 96 -261 110 -256 28
9 7 240 -31 342 -8 22 -21 67 -28 100 -15 68 -72 198 -108 247 -13 18 -36 62
-51 97 -15 35 -38 77 -51 93 -14 16 -25 37 -25 46 -1 112 -345 489 -526 577
-55 26 -124 63 -156 82 -31 19 -96 50 -145 68 -48 18 -119 46 -158 63 -68 29
-96 37 -255 66 -169 31 -634 20 -795 -19z"/>
<path d="M9694 12302 c-10 -2 -51 -14 -91 -28 -51 -17 -94 -24 -150 -24 -91 0
-192 -31 -259 -80 -23 -16 -77 -41 -121 -55 -57 -18 -88 -34 -112 -59 -21 -22
-58 -43 -98 -57 -35 -13 -81 -37 -101 -54 -20 -17 -53 -42 -72 -55 -19 -13
-42 -33 -50 -45 -8 -11 -61 -66 -117 -122 -57 -56 -103 -106 -103 -111 0 -6
-20 -34 -45 -63 -25 -29 -54 -78 -66 -108 -11 -30 -36 -80 -54 -110 -19 -31
-41 -84 -49 -119 -8 -35 -19 -69 -25 -76 -6 -7 -24 -53 -41 -102 -82 -239 -60
-294 43 -108 21 38 63 103 93 144 29 41 70 99 90 128 51 76 185 242 195 242 4
0 27 25 51 56 23 31 78 84 122 118 44 33 100 78 125 99 25 20 59 45 75 55 295
178 323 188 638 227 240 29 276 30 378 11 41 -7 131 -17 199 -20 68 -4 137
-13 155 -20 17 -7 49 -16 71 -20 22 -4 76 -19 120 -32 44 -14 136 -38 205 -54
89 -20 157 -43 235 -80 61 -28 137 -60 170 -71 33 -10 85 -35 115 -54 30 -20
80 -43 110 -52 29 -8 74 -29 100 -45 175 -116 282 -183 325 -205 59 -30 191
-117 221 -145 21 -19 91 -68 211 -148 33 -22 78 -61 98 -86 20 -25 61 -63 91
-86 30 -22 64 -56 76 -76 12 -20 48 -65 80 -100 32 -35 58 -68 58 -73 0 -4 19
-30 43 -57 87 -100 150 -188 184 -257 20 -38 55 -104 79 -146 24 -42 44 -83
44 -91 0 -9 15 -38 34 -65 78 -114 137 -279 161 -454 8 -57 24 -165 36 -239
23 -153 16 -342 -22 -529 -10 -51 -19 -107 -19 -125 0 -17 -14 -60 -31 -96
-17 -36 -41 -92 -54 -125 -59 -154 -134 -272 -285 -445 -36 -41 -82 -97 -102
-125 -20 -27 -63 -70 -94 -95 -51 -40 -110 -90 -213 -181 -55 -47 -28 -54 72
-17 71 25 94 38 118 69 17 22 52 48 82 62 29 13 72 40 95 60 24 21 47 37 51
37 16 0 163 152 214 222 47 64 63 78 92 84 41 7 48 14 73 81 11 28 43 80 71
115 29 35 64 90 78 123 83 196 133 368 133 456 0 35 9 115 20 178 40 226 15
441 -86 764 -13 43 -24 88 -24 100 0 12 -11 44 -24 72 -13 27 -32 75 -41 105
-9 30 -48 116 -87 190 -38 74 -89 173 -113 220 -24 47 -62 105 -84 130 -23 25
-54 68 -70 95 -45 77 -392 437 -486 504 -22 16 -62 56 -88 89 -50 64 -163 161
-247 213 -28 17 -55 39 -60 48 -5 10 -55 42 -112 71 -57 29 -123 69 -148 90
-66 53 -110 78 -191 105 -40 14 -82 32 -95 39 -12 8 -59 27 -105 42 -46 14
-119 46 -163 71 -64 37 -110 53 -255 88 -97 24 -203 53 -235 65 -33 11 -102
27 -155 35 -53 8 -134 27 -181 44 -78 27 -102 30 -265 36 -216 8 -415 11 -441
7z"/>
<path d="M5870 11811 c-148 -7 -208 -26 -280 -87 -19 -16 -61 -49 -92 -72 -32
-24 -58 -47 -58 -51 0 -5 -24 -24 -52 -42 -77 -48 -142 -104 -228 -193 -41
-43 -101 -101 -132 -127 -57 -48 -132 -133 -166 -188 -10 -16 -62 -69 -115
-117 -53 -48 -97 -91 -97 -95 0 -5 -33 -34 -72 -66 -40 -32 -101 -83 -136
-114 -35 -32 -100 -77 -145 -100 -45 -23 -90 -53 -100 -66 -11 -13 -47 -38
-81 -55 -33 -17 -73 -39 -88 -50 -43 -30 -164 -77 -268 -104 -52 -13 -106 -33
-120 -44 -14 -11 -53 -34 -87 -50 -77 -36 -168 -93 -208 -130 -16 -16 -52 -41
-79 -57 -33 -19 -61 -46 -85 -85 -20 -31 -58 -88 -86 -128 -128 -184 -138
-209 -138 -340 0 -110 51 -324 92 -390 16 -25 36 -62 44 -82 9 -20 28 -43 44
-52 15 -8 37 -29 48 -46 11 -17 43 -45 70 -62 28 -18 76 -56 107 -85 149 -140
399 -191 560 -116 138 65 131 141 -8 92 -204 -72 -513 81 -605 300 -55 131
-81 369 -46 427 55 93 91 135 144 167 32 20 69 47 83 62 36 38 98 72 148 79
24 4 71 21 105 38 63 31 346 138 368 138 6 0 28 9 48 19 35 19 105 49 221 93
33 12 78 42 111 72 30 29 89 69 130 91 91 47 117 69 330 269 107 100 172 168
176 185 10 43 31 79 81 136 81 92 118 139 146 183 15 24 47 57 72 75 26 18 73
68 106 112 33 44 84 98 113 120 30 22 79 60 109 84 31 23 74 47 96 52 22 5 62
23 89 39 129 80 380 88 460 16 9 -8 37 -24 62 -34 32 -14 57 -35 77 -64 17
-24 47 -59 67 -78 174 -165 158 -632 -25 -730 -21 -11 -27 -35 -11 -44 22 -14
69 17 152 100 101 101 169 375 124 499 -8 22 -15 65 -15 95 0 78 -15 122 -54
161 -19 19 -48 64 -64 99 -20 45 -41 75 -68 95 -21 16 -53 44 -70 61 -18 17
-45 34 -60 38 -16 4 -99 39 -184 79 -176 81 -181 82 -460 68z"/>
<path d="M9564 11540 c-190 -25 -329 -132 -467 -360 -15 -25 -36 -56 -47 -70
-118 -148 -60 -582 103 -777 18 -23 39 -54 46 -71 13 -30 47 -52 81 -52 33 0
23 25 -38 92 -127 140 -161 495 -66 682 84 166 85 167 121 183 20 8 63 33 95
56 113 80 291 56 463 -62 177 -120 203 -141 238 -188 20 -26 68 -86 107 -133
39 -47 95 -117 124 -155 29 -39 61 -77 70 -84 10 -8 24 -28 33 -45 22 -43 84
-116 174 -206 41 -41 90 -94 107 -116 20 -26 49 -48 74 -59 24 -9 93 -54 153
-99 146 -109 150 -112 231 -140 38 -13 92 -34 119 -48 28 -14 93 -40 145 -56
52 -17 167 -56 255 -87 88 -31 192 -65 232 -76 83 -22 284 -110 328 -144 17
-12 49 -32 72 -43 23 -12 51 -36 64 -54 12 -18 37 -49 55 -68 111 -118 134
-387 49 -590 -13 -30 -29 -75 -36 -100 -28 -98 -216 -250 -310 -250 -20 0 -70
-7 -110 -15 -41 -8 -87 -16 -104 -17 -52 -5 99 -58 165 -58 183 0 289 32 341
103 19 25 52 57 75 72 264 169 370 653 215 980 -31 66 -204 251 -263 281 -18
9 -54 35 -79 58 -28 25 -71 50 -111 64 -36 13 -88 40 -116 61 -33 25 -73 44
-117 55 -37 9 -113 41 -169 71 -55 29 -142 70 -193 90 -51 20 -118 52 -150 72
-32 19 -81 44 -110 54 -29 11 -85 44 -125 73 -40 29 -89 61 -108 71 -19 10
-52 33 -73 52 -22 19 -59 47 -83 62 -24 16 -65 50 -92 77 -55 55 -140 130
-176 153 -13 9 -50 50 -83 91 -33 42 -80 92 -104 110 -24 19 -80 70 -124 114
-44 43 -99 92 -122 108 -24 16 -43 33 -43 38 0 6 -24 26 -54 46 -29 19 -67 52
-84 73 -32 40 -89 72 -217 122 -171 67 -228 76 -361 59z"/>
<path d="M7310 9964 c-63 -8 -155 -25 -205 -38 -49 -14 -110 -27 -135 -31 -66
-10 -376 -164 -445 -222 -111 -94 -175 -162 -195 -209 -11 -26 -39 -69 -62
-96 -40 -48 -68 -120 -68 -176 0 -13 -7 -52 -16 -85 -25 -99 -5 -372 36 -474
16 -41 39 -111 51 -156 11 -45 29 -96 40 -113 10 -17 19 -37 19 -45 0 -7 15
-38 33 -69 19 -30 62 -106 97 -168 83 -148 132 -200 154 -163 12 19 -17 112
-55 175 -43 72 -109 256 -109 305 0 17 -9 56 -20 86 -11 30 -29 79 -39 108
-67 183 -53 515 25 588 14 13 47 61 72 107 54 96 124 163 204 194 28 10 71 37
96 59 25 21 63 44 86 50 22 6 57 19 76 29 162 80 750 150 944 112 61 -12 149
-27 196 -32 183 -21 544 -132 599 -183 14 -14 44 -34 66 -45 190 -97 323 -489
272 -800 -9 -53 -22 -140 -28 -192 -6 -52 -18 -111 -25 -129 -8 -19 -19 -65
-24 -101 -5 -37 -23 -98 -39 -136 -16 -38 -37 -96 -46 -129 -16 -55 -67 -163
-189 -403 -26 -51 -44 -97 -41 -102 13 -21 131 99 180 183 27 45 68 110 92
145 24 35 43 69 43 75 0 7 19 39 43 73 54 78 187 417 187 478 0 10 11 56 25
104 75 267 68 634 -15 772 -22 37 -40 70 -40 75 0 45 -146 224 -212 260 -29
16 -72 43 -95 61 -23 17 -73 44 -112 59 -38 14 -86 39 -105 54 -38 30 -256 90
-401 111 -316 45 -398 51 -620 41 -44 -2 -102 -2 -130 2 -27 3 -102 -1 -165
-9z"/>
<path d="M10273 9505 c-157 -194 -368 -275 -573 -220 -129 35 -177 15 -165
-69 3 -28 9 -69 12 -92 4 -37 -21 -277 -33 -308 -21 -55 41 -83 84 -37 15 16
50 40 79 55 28 14 54 30 57 35 47 76 233 142 274 98 64 -67 41 -132 -137 -383
-43 -62 -4 -84 72 -40 27 15 67 26 110 31 201 20 284 173 336 620 27 225 -40
403 -116 310z"/>
<path d="M5103 9519 c-18 -19 -16 -37 6 -48 41 -22 103 -112 131 -189 15 -42
39 -104 54 -137 31 -73 33 -126 6 -240 -31 -132 -16 -185 51 -185 35 0 185
-52 248 -86 121 -66 138 -27 71 171 -75 222 -83 250 -87 312 -14 188 119 132
296 -125 37 -53 43 -37 45 108 2 167 -6 193 -68 220 -24 11 -67 35 -94 54 -28
18 -74 39 -104 46 -29 7 -67 20 -84 30 -92 52 -438 103 -471 69z"/>
<path d="M6995 9231 c-155 -15 -250 -106 -275 -263 -6 -35 -13 -76 -15 -93 -4
-20 2 -43 18 -70 35 -61 51 -57 77 20 15 44 30 71 48 83 14 9 42 34 62 54 59
60 227 61 350 2 194 -94 532 -138 673 -89 39 14 102 30 140 35 37 6 100 21
139 35 78 27 121 31 165 14 15 -6 59 -20 97 -30 114 -32 183 -104 195 -203 7
-62 28 -67 54 -16 44 87 -4 217 -133 360 -71 78 -251 105 -450 66 -202 -39
-308 -56 -349 -56 -61 0 -247 38 -288 58 -21 11 -61 22 -89 26 -28 3 -91 20
-139 36 -98 33 -175 42 -280 31z"/>
<path d="M1895 8794 c-122 -45 -152 -53 -227 -59 -40 -4 -111 -15 -158 -26
-85 -19 -229 -40 -410 -60 -53 -6 -137 -8 -190 -4 -52 4 -127 6 -167 5 -48 -1
-93 5 -139 19 -98 31 -122 17 -102 -56 19 -69 158 -325 203 -373 12 -14 39
-50 58 -80 19 -30 47 -66 62 -80 15 -14 37 -47 49 -73 29 -63 374 -432 446
-476 68 -41 132 -22 201 61 20 24 51 51 70 60 69 34 185 86 207 92 63 20 8 82
-136 152 -64 31 -142 74 -172 96 -30 21 -97 65 -148 98 -304 196 -25 316 305
130 28 -16 116 -50 195 -76 79 -25 167 -54 196 -65 29 -10 83 -24 120 -29 37
-6 105 -27 152 -46 200 -83 275 -55 141 54 -47 38 -139 153 -171 213 -6 10
-31 41 -55 68 -24 28 -46 60 -50 73 -4 13 -26 75 -50 138 -24 63 -51 137 -60
163 -35 100 -71 117 -170 81z"/>
<path d="M4880 8481 c-30 -5 -80 -20 -110 -35 -30 -14 -64 -26 -75 -26 -70 0
-274 -124 -392 -238 -33 -31 -71 -65 -85 -74 -15 -10 -54 -74 -97 -158 -40
-78 -85 -156 -100 -173 -15 -18 -32 -55 -39 -84 -6 -28 -38 -120 -72 -204 -33
-84 -60 -159 -60 -168 -1 -9 -10 -41 -21 -71 -138 -379 -140 -1004 -4 -1271
137 -268 499 -506 822 -541 335 -35 692 -7 1098 87 208 48 144 104 -86 74
-243 -32 -870 -10 -971 35 -20 8 -62 19 -94 22 -117 14 -434 222 -434 285 0 4
-25 36 -55 71 -41 46 -60 78 -71 118 -8 30 -27 89 -42 130 -31 87 -35 377 -7
535 8 44 19 118 26 165 14 107 71 305 108 379 16 31 35 79 44 106 8 28 34 95
57 150 23 55 53 127 67 160 14 33 40 76 58 95 18 19 52 63 75 98 52 77 170
175 248 207 31 12 83 35 115 50 42 19 68 26 92 22 18 -3 66 -1 106 4 157 20
213 14 359 -34 154 -51 398 -164 448 -208 18 -16 61 -42 95 -58 45 -22 98 -63
197 -156 74 -69 164 -149 200 -178 36 -29 92 -80 125 -114 61 -63 128 -102
140 -82 13 21 -79 155 -169 246 -109 109 -241 252 -277 298 -14 18 -50 53 -80
76 -29 24 -85 71 -123 105 -38 35 -95 77 -127 94 -32 17 -75 46 -94 64 -20 19
-48 37 -63 41 -15 4 -58 22 -96 41 -39 19 -76 34 -85 34 -8 0 -33 11 -57 25
-79 47 -350 77 -494 56z"/>
<path d="M13625 8371 c-35 -21 -57 -51 -73 -101 -7 -20 -32 -58 -55 -85 -24
-28 -60 -75 -79 -106 -20 -31 -56 -79 -82 -108 -47 -52 -58 -84 -32 -94 23 -9
477 2 535 13 394 75 328 -149 -79 -266 -47 -13 -107 -33 -135 -44 -27 -10
-103 -36 -167 -56 -129 -41 -136 -47 -80 -65 20 -6 59 -23 86 -36 28 -14 102
-42 165 -63 64 -21 144 -54 179 -75 106 -64 179 -57 238 21 15 19 48 46 74 59
29 15 92 70 166 147 65 67 147 150 180 183 34 33 79 87 100 120 21 33 59 83
85 111 26 28 59 73 73 100 15 27 38 64 51 82 22 31 75 171 75 200 0 38 -85 33
-207 -12 -98 -36 -447 -49 -575 -20 -40 8 -110 19 -156 24 -69 7 -95 15 -157
49 -85 47 -89 48 -130 22z"/>
<path d="M10285 8339 c-44 -4 -111 -19 -150 -34 -38 -14 -95 -35 -125 -46 -92
-33 -235 -117 -254 -150 -10 -17 -41 -42 -74 -58 -31 -16 -79 -52 -107 -81
-27 -28 -70 -63 -95 -77 -64 -37 -172 -138 -194 -181 -10 -20 -37 -55 -60 -77
-41 -39 -94 -130 -83 -141 11 -11 96 57 152 121 45 51 74 73 130 100 40 19 85
45 101 58 16 13 54 38 84 56 30 17 66 40 80 50 14 10 45 31 70 45 25 15 60 37
77 50 18 13 65 31 104 40 39 9 97 31 128 49 75 43 397 49 508 9 146 -52 275
-133 303 -188 8 -17 51 -66 95 -110 91 -90 121 -136 172 -267 91 -234 158
-458 178 -595 8 -57 20 -122 25 -145 94 -398 -54 -1002 -272 -1117 -37 -19
-78 -46 -91 -58 -142 -134 -668 -212 -972 -145 -271 59 -293 -3 -28 -77 60
-16 140 -41 178 -54 39 -14 82 -26 97 -26 15 0 64 -9 110 -20 113 -27 314 -28
419 -1 41 10 108 21 149 25 63 5 83 12 125 40 28 19 78 48 112 65 34 17 73 46
87 64 15 19 44 42 66 52 245 110 384 998 238 1515 -16 58 -33 143 -37 190 -6
65 -14 96 -34 130 -14 25 -29 63 -32 85 -9 53 -120 301 -154 345 -15 19 -39
55 -54 80 -26 45 -89 110 -159 166 -21 17 -56 54 -77 83 -51 68 -47 65 -231
148 -215 97 -266 106 -505 82z"/>
<path d="M7747 8123 c-2 -4 -7 -109 -11 -233 -5 -151 -15 -282 -31 -400 -14
-96 -27 -194 -31 -218 -10 -81 -121 -145 -294 -171 -85 -13 -147 -41 -238
-106 -34 -24 -81 -49 -105 -55 -42 -11 -186 -146 -258 -240 -82 -108 -285
-142 -588 -101 -85 12 -187 21 -226 21 -51 0 -86 6 -119 21 -115 50 -123 2 -9
-51 48 -23 118 -57 156 -76 37 -19 100 -42 140 -50 39 -9 120 -31 179 -50 66
-21 128 -34 160 -34 123 0 173 -82 142 -233 -22 -104 -23 -372 -2 -462 29
-131 118 -320 186 -395 27 -30 57 -70 66 -89 10 -18 35 -52 55 -75 106 -116
65 -280 -99 -401 -23 -16 -68 -70 -102 -120 -33 -49 -83 -112 -109 -140 -45
-47 -99 -150 -99 -190 0 -45 101 25 245 170 62 61 164 145 226 184 25 15 65
51 88 78 91 108 185 130 324 74 43 -17 85 -31 95 -31 9 0 46 -9 80 -20 92 -29
248 -23 407 16 33 8 96 23 140 34 44 10 107 30 139 44 117 52 196 43 256 -27
19 -22 62 -67 96 -101 80 -81 113 -125 162 -221 23 -44 60 -104 82 -133 23
-30 52 -79 66 -110 32 -73 55 -61 36 21 -46 205 -69 270 -158 452 -46 94 -88
190 -93 215 -6 25 -22 67 -35 93 -35 68 -21 146 40 218 94 113 170 304 216
544 8 45 8 89 -2 187 -27 261 11 299 467 480 157 62 186 79 164 101 -38 38
-399 -6 -557 -69 -103 -41 -170 -6 -270 141 -121 178 -201 260 -273 282 -34
10 -72 31 -96 53 -53 49 -179 116 -235 125 -136 22 -183 71 -174 181 17 212
-152 948 -199 867z m212 -1262 c35 -18 95 -39 134 -47 90 -19 177 -71 242
-144 11 -13 44 -40 73 -62 107 -79 193 -218 232 -374 46 -181 26 -647 -30
-710 -15 -18 -40 -64 -55 -103 -21 -57 -36 -79 -73 -109 -25 -20 -64 -53 -86
-73 -23 -19 -64 -49 -93 -67 -28 -17 -79 -53 -112 -80 -33 -26 -71 -53 -83
-59 -148 -71 -148 -71 -231 -60 -58 8 -102 7 -170 -2 -86 -12 -95 -11 -137 8
-25 11 -51 21 -59 21 -62 1 -277 134 -335 208 -21 28 -55 59 -75 70 -54 31
-161 178 -161 222 0 8 -12 31 -26 51 -72 104 -115 581 -65 707 83 206 135 300
186 336 18 11 69 63 116 114 141 157 250 193 574 189 170 -3 170 -3 234 -36z"/>
<path d="M7610 6292 c-277 -77 -397 -394 -224 -593 30 -34 54 -66 54 -70 0
-13 116 -79 167 -94 70 -22 169 -19 223 6 25 11 69 30 98 41 66 25 183 161
207 242 81 270 -232 548 -525 468z m223 -86 c195 -70 268 -395 115 -509 -234
-174 -548 -48 -548 220 0 93 97 259 165 282 70 23 211 27 268 7z"/>
<path d="M4975 7917 c-115 -45 -193 -113 -226 -195 -12 -31 -31 -69 -41 -84
-25 -37 -44 -93 -53 -158 -4 -30 -15 -88 -26 -129 -10 -41 -19 -90 -19 -109 0
-19 -13 -77 -30 -129 -16 -51 -30 -109 -30 -128 0 -87 -59 -239 -123 -315 -15
-17 -30 -49 -33 -70 -4 -24 -19 -52 -40 -74 -114 -121 -66 -397 86 -493 30
-19 69 -48 85 -63 40 -38 75 -50 146 -50 121 0 120 39 -3 101 -121 61 -171
261 -103 419 27 64 126 210 176 260 15 14 35 43 46 65 10 22 31 61 46 86 63
107 89 227 106 484 22 323 164 508 342 446 118 -41 133 25 23 102 -65 46 -250
65 -329 34z"/>
<path d="M10075 7704 c-16 -14 -51 -36 -77 -49 -51 -27 -88 -67 -88 -96 0 -25
17 -24 71 4 78 39 274 33 357 -12 129 -70 167 -142 167 -321 1 -148 40 -277
145 -470 113 -210 148 -316 175 -527 22 -173 -154 -360 -350 -373 -91 -6 -105
-24 -52 -64 82 -60 292 -19 396 78 230 217 272 578 111 946 -16 37 -39 106
-50 152 -11 46 -31 117 -45 158 -14 40 -25 90 -25 110 0 158 -162 362 -339
426 -25 9 -66 26 -91 36 -78 34 -266 35 -305 2z"/>
<path d="M2115 7509 c-168 -32 -284 -66 -345 -103 -30 -18 -71 -39 -90 -46
-98 -38 -324 -256 -399 -384 -32 -56 -75 -122 -95 -148 -44 -59 -103 -176
-118 -237 -6 -25 -24 -72 -40 -105 -69 -137 -159 -463 -173 -626 -4 -41 -13
-118 -20 -170 -13 -96 -14 -502 0 -648 31 -343 82 -590 196 -950 16 -51 29
-103 29 -116 0 -28 85 -279 130 -386 18 -41 52 -129 76 -194 24 -66 66 -159
94 -207 28 -48 64 -120 81 -161 16 -40 38 -87 49 -105 11 -18 33 -63 49 -100
44 -101 119 -232 160 -282 20 -24 57 -71 82 -105 26 -33 61 -74 78 -89 17 -16
31 -35 31 -43 0 -17 116 -131 142 -140 9 -3 40 -34 67 -69 28 -35 76 -82 108
-103 32 -22 78 -61 103 -87 25 -26 70 -64 100 -85 30 -20 74 -53 97 -73 24
-19 66 -43 93 -52 28 -9 70 -31 93 -49 82 -62 237 -146 299 -162 35 -9 74 -22
88 -29 24 -12 101 -21 405 -46 120 -10 136 -9 205 10 41 12 111 28 155 36 148
29 165 35 243 86 42 29 109 68 147 87 56 29 102 67 230 192 88 86 177 166 198
179 20 13 48 41 62 64 13 23 45 62 70 87 112 110 31 122 -85 12 -19 -18 -64
-53 -100 -77 -36 -24 -81 -64 -102 -88 -22 -27 -64 -58 -110 -82 -40 -21 -97
-54 -127 -73 -29 -19 -90 -47 -135 -62 -44 -16 -109 -40 -144 -54 -385 -161
-1032 -22 -1367 293 -27 26 -69 58 -92 70 -23 13 -49 39 -59 57 -10 18 -31 39
-47 45 -16 7 -46 36 -68 65 -21 29 -44 57 -51 61 -7 4 -31 31 -53 58 -21 28
-55 64 -75 82 -20 17 -51 60 -70 95 -18 35 -44 78 -58 97 -46 61 -94 135 -114
176 -12 22 -34 55 -49 75 -16 19 -44 75 -63 123 -19 48 -48 109 -65 135 -16
26 -35 70 -42 97 -6 28 -19 64 -27 80 -17 34 -61 151 -102 275 -61 181 -86
246 -112 285 -15 23 -28 62 -32 91 -4 28 -18 85 -32 125 -14 41 -36 126 -49
190 -13 64 -31 131 -39 150 -9 19 -32 102 -51 184 -20 83 -47 195 -60 250 -13
55 -26 129 -29 165 -3 36 -13 149 -23 252 -20 227 -8 560 28 733 11 55 26 132
34 170 61 328 204 586 470 847 55 54 125 115 155 135 30 20 73 49 95 63 22 15
52 30 66 33 14 4 52 22 83 41 44 26 74 36 124 41 37 4 85 11 107 16 22 5 101
14 175 20 267 21 315 26 297 27 -10 1 -49 15 -87 31 -152 65 -402 86 -595 50z"/>
<path d="M12645 7180 c-49 -10 -107 -19 -127 -19 -107 -2 1 -55 130 -65 89 -6
343 -51 432 -76 36 -10 89 -21 119 -24 61 -6 264 -101 360 -168 30 -21 60 -38
68 -38 40 0 301 -265 365 -371 11 -19 44 -63 72 -99 44 -55 146 -239 146 -263
0 -7 51 -139 126 -330 103 -258 89 -836 -32 -1342 -41 -174 -101 -398 -119
-445 -10 -25 -34 -94 -55 -155 -75 -222 -218 -503 -300 -590 -41 -44 -126
-192 -156 -270 -12 -32 -43 -77 -89 -127 -100 -109 -165 -184 -206 -239 -37
-50 -348 -359 -361 -359 -4 0 -32 -20 -62 -44 -30 -25 -87 -61 -128 -82 -40
-20 -95 -54 -122 -77 -224 -186 -784 -283 -1056 -183 -95 35 -166 58 -255 84
-123 35 -265 91 -321 127 -29 19 -84 50 -121 69 -38 19 -81 47 -96 64 -16 16
-47 38 -70 48 -23 10 -57 31 -75 46 -35 30 -82 38 -82 14 0 -7 17 -26 38 -42
20 -16 51 -41 67 -56 17 -15 33 -28 37 -28 4 0 28 -27 53 -60 28 -36 63 -69
88 -82 23 -11 78 -49 121 -84 49 -39 132 -89 214 -131 74 -37 145 -75 158 -86
33 -26 195 -82 295 -102 45 -9 111 -28 148 -42 124 -47 522 -37 666 17 28 10
78 23 111 29 64 12 257 97 309 137 17 12 55 32 86 43 60 23 97 46 226 144 147
111 223 177 239 209 9 17 48 63 86 102 139 142 166 172 193 216 15 25 49 68
76 96 27 27 69 82 92 121 61 103 117 189 157 242 61 82 185 315 246 461 20 47
55 121 79 165 24 44 50 104 59 133 8 30 40 101 71 159 57 109 74 170 140 478
30 140 65 395 65 470 0 28 8 83 18 121 25 98 22 337 -7 472 -11 53 -25 138
-30 189 -6 56 -18 107 -31 132 -11 23 -31 82 -45 133 -15 56 -50 141 -89 217
-35 69 -69 146 -76 171 -16 59 -34 93 -74 138 -18 20 -49 65 -70 99 -20 34
-52 75 -71 90 -18 16 -43 45 -55 65 -23 39 -215 221 -312 295 -31 25 -89 55
-136 72 -45 17 -117 46 -160 65 -120 54 -280 104 -357 112 -38 4 -96 15 -129
25 -92 30 -363 35 -481 9z"/>
<path d="M2325 6735 c-83 -8 -161 -21 -215 -38 -47 -14 -97 -28 -113 -32 -46
-9 -199 -170 -240 -251 -18 -38 -44 -88 -56 -111 -12 -23 -26 -68 -31 -101 -4
-33 -16 -74 -25 -92 -28 -53 -24 -200 9 -340 15 -63 31 -149 36 -190 11 -86
29 -136 111 -311 33 -69 63 -149 68 -178 5 -31 20 -69 38 -94 16 -23 42 -72
58 -109 15 -37 39 -77 52 -90 24 -22 143 -246 143 -269 0 -6 24 -72 54 -147
30 -75 64 -173 75 -217 11 -44 37 -123 57 -175 23 -62 41 -130 50 -195 7 -55
18 -122 23 -150 6 -27 15 -133 21 -235 7 -102 18 -210 26 -240 8 -30 28 -104
44 -165 16 -60 30 -122 30 -136 0 -79 72 -223 161 -324 25 -27 57 -68 73 -90
40 -54 72 -80 131 -105 33 -14 59 -34 77 -59 17 -26 39 -43 65 -51 21 -7 59
-23 84 -36 113 -56 232 -63 407 -24 23 6 57 10 75 10 18 0 48 11 68 24 19 13
53 31 74 40 21 9 54 34 72 56 19 22 61 54 94 71 105 56 227 386 186 502 -29
80 -31 79 -76 -34 -222 -563 -878 -527 -1022 56 -30 124 -32 143 -40 410 -10
342 -23 550 -37 590 -6 17 -13 57 -16 90 -4 33 -18 110 -31 170 -14 61 -29
142 -34 180 -9 71 -51 184 -97 262 -14 24 -37 73 -52 111 -30 72 -125 224
-179 284 -18 21 -40 55 -48 75 -9 21 -35 58 -59 83 -24 25 -60 72 -81 105 -21
33 -59 87 -85 120 -47 59 -93 153 -111 228 -5 21 -22 64 -38 95 -52 104 -88
333 -70 438 11 62 75 191 136 272 45 59 234 145 303 138 30 -3 94 -10 141 -15
93 -10 101 -13 199 -77 70 -45 107 -58 128 -45 21 13 -28 101 -69 125 -19 11
-52 37 -75 58 -108 100 -282 149 -469 133z"/>
<path d="M12985 6509 c-138 -13 -272 -83 -327 -168 -36 -57 -22 -64 56 -28
303 139 713 -14 802 -300 38 -119 33 -364 -8 -458 -15 -33 -43 -103 -64 -155
-56 -147 -101 -225 -150 -266 -25 -19 -59 -59 -78 -87 -18 -29 -43 -61 -55
-72 -13 -11 -29 -35 -37 -55 -8 -19 -34 -55 -58 -80 -24 -25 -52 -61 -61 -80
-10 -19 -37 -60 -61 -90 -23 -30 -54 -83 -68 -118 -14 -35 -39 -82 -56 -104
-17 -24 -30 -54 -30 -70 0 -16 -22 -93 -49 -171 -37 -110 -52 -173 -65 -274
-9 -72 -22 -147 -27 -165 -12 -39 -28 -254 -34 -450 -16 -544 -279 -860 -684
-820 -88 9 -107 15 -149 43 -123 83 -174 124 -188 150 -21 41 -34 28 -22 -23
22 -100 162 -221 346 -300 26 -11 61 -26 77 -33 64 -29 210 -29 332 -1 61 14
122 26 135 26 116 2 357 286 407 482 10 40 35 107 55 150 45 95 63 163 71 270
4 46 15 118 26 161 10 43 25 118 34 167 8 48 25 109 36 134 11 26 29 100 40
164 25 144 72 322 110 418 16 40 29 81 29 91 0 10 8 32 17 48 9 17 33 62 53
100 54 104 148 253 198 315 24 30 53 73 64 95 11 22 37 56 57 75 210 206 306
714 182 963 -29 59 -57 107 -61 107 -4 0 -23 24 -41 53 -61 95 -139 175 -189
192 -25 8 -75 36 -112 61 -49 33 -98 55 -180 80 -119 36 -129 36 -273 23z"/>
<path d="M3957 5286 c-29 -29 -75 -65 -103 -79 -34 -17 -64 -43 -89 -77 -20
-28 -51 -57 -69 -66 -64 -31 -223 -212 -272 -310 -66 -130 -51 -155 70 -122
147 39 524 -65 710 -197 83 -60 139 -34 232 109 14 23 50 61 80 86 103 85 124
153 57 177 -58 22 -240 33 -319 21 -153 -24 -344 13 -344 67 0 41 239 174 382
211 114 29 134 51 77 82 -17 9 -48 28 -68 41 -187 125 -267 138 -344 57z"/>
<path d="M6020 5163 c-19 -9 -60 -19 -90 -23 -30 -5 -100 -25 -155 -45 -55
-20 -124 -43 -154 -51 -72 -20 -477 -229 -573 -295 -18 -12 -72 -60 -120 -106
-48 -46 -93 -83 -99 -83 -17 0 -147 -136 -173 -179 -12 -20 -37 -57 -56 -84
-19 -26 -44 -73 -56 -105 -12 -31 -32 -81 -45 -109 -41 -94 -4 -388 70 -553
23 -50 41 -97 41 -105 0 -41 113 -239 183 -320 19 -22 48 -68 65 -102 22 -43
44 -70 74 -90 24 -16 50 -44 59 -63 18 -38 93 -106 147 -134 18 -9 68 -46 112
-81 44 -35 94 -72 112 -81 18 -9 53 -33 78 -53 51 -43 235 -141 263 -141 35 0
122 -43 155 -76 20 -21 46 -35 70 -39 20 -3 62 -15 92 -27 197 -73 367 -89
535 -48 66 16 143 35 170 41 190 44 378 186 459 348 21 40 54 91 75 114 55 61
106 169 131 277 12 52 32 126 46 163 16 45 24 90 24 132 0 35 5 76 10 91 16
41 50 281 50 349 0 121 -32 105 -56 -29 -8 -47 -27 -114 -43 -148 -15 -35 -31
-80 -35 -102 -4 -21 -16 -57 -26 -80 -10 -22 -26 -66 -35 -96 -9 -30 -40 -95
-69 -145 -54 -91 -186 -364 -186 -383 0 -6 -19 -23 -42 -39 -24 -16 -52 -46
-63 -67 -17 -31 -36 -45 -113 -83 -52 -25 -106 -56 -120 -68 -92 -76 -308 -92
-521 -39 -51 13 -103 24 -115 24 -19 0 -136 52 -251 112 -22 11 -94 48 -160
81 -66 33 -136 72 -155 87 -19 15 -56 41 -81 56 -121 75 -391 331 -501 474
-287 377 -284 853 8 1166 57 61 104 116 104 121 0 23 45 65 103 97 34 20 83
52 109 73 26 21 75 54 109 73 34 19 81 52 104 72 24 21 75 53 114 72 40 19 88
46 107 61 19 15 52 31 72 37 20 5 51 22 67 38 28 26 199 110 223 110 6 0 14 5
17 10 9 14 -24 11 -65 -7z"/>
<path d="M11278 5120 c-31 -16 -101 -43 -155 -59 -54 -16 -116 -36 -138 -44
-22 -8 -71 -18 -108 -22 -81 -8 -96 -26 -51 -62 37 -30 300 -162 383 -193 260
-96 152 -237 -166 -216 -170 11 -210 -9 -133 -65 41 -31 74 -84 94 -151 25
-85 63 -105 142 -72 22 9 71 20 109 25 130 15 206 29 235 44 16 8 79 31 139
51 104 33 175 74 269 153 47 41 15 94 -89 147 -143 72 -296 237 -388 419 -43
84 -59 89 -143 45z"/>
<path d="M9526 5072 c23 -20 72 -55 109 -77 37 -22 89 -58 114 -80 25 -23 59
-47 75 -54 16 -6 47 -32 69 -57 21 -24 60 -56 85 -70 26 -15 72 -52 103 -83
30 -31 73 -73 95 -93 21 -20 57 -58 79 -84 22 -26 67 -75 101 -108 110 -110
163 -207 239 -431 55 -160 -21 -469 -150 -606 -25 -26 -45 -56 -45 -66 0 -22
-380 -395 -428 -419 -58 -29 -158 -101 -180 -129 -11 -14 -37 -32 -59 -41 -21
-8 -67 -30 -103 -48 -36 -19 -90 -41 -120 -51 -30 -10 -84 -30 -121 -46 -36
-15 -94 -33 -130 -38 -35 -6 -104 -24 -153 -41 -148 -50 -349 -39 -476 25 -27
14 -62 25 -77 25 -39 0 -89 33 -109 72 -23 46 -43 67 -86 89 -57 29 -123 125
-187 272 -32 73 -67 150 -79 171 -12 22 -29 74 -38 115 -9 42 -25 92 -35 113
-28 55 -38 110 -48 254 -10 140 -35 256 -57 275 -52 43 -54 -185 -5 -585 13
-109 18 -124 69 -251 22 -55 46 -122 53 -150 7 -27 20 -61 29 -75 10 -14 23
-43 30 -64 41 -126 80 -188 175 -280 210 -202 228 -214 315 -215 25 -1 92 -10
150 -22 115 -23 219 -21 340 6 36 8 95 14 131 15 55 0 76 5 130 34 35 19 106
48 157 65 211 71 513 238 640 356 32 29 80 64 108 78 27 14 66 43 86 65 20 22
61 59 92 81 31 23 68 60 82 82 14 22 49 67 77 99 123 139 191 257 232 405 19
66 41 140 50 165 31 84 32 262 2 345 -58 159 -97 242 -135 285 -21 25 -48 63
-60 85 -27 53 -252 265 -281 265 -5 0 -34 20 -66 45 -32 24 -74 50 -94 56 -20
7 -61 35 -92 63 -35 33 -74 58 -110 70 -29 10 -77 34 -106 53 -28 19 -73 41
-98 49 -26 7 -62 27 -80 43 -21 18 -49 31 -81 36 -26 4 -70 15 -96 26 -71 28
-78 23 -32 -19z"/>
<path d="M5335 4314 c-16 -8 -38 -23 -48 -31 -10 -9 -34 -26 -53 -38 -201
-121 -240 -439 -78 -614 70 -75 102 -94 262 -155 40 -16 97 -44 125 -64 29
-19 71 -45 94 -56 50 -25 306 -272 348 -335 17 -25 54 -61 84 -81 37 -25 61
-50 77 -82 49 -96 274 -166 395 -123 24 9 63 20 86 25 149 34 302 222 303 372
0 60 -33 44 -44 -22 -10 -63 -129 -173 -206 -191 -149 -35 -329 52 -401 193
-16 32 -48 80 -71 107 -24 28 -68 80 -98 116 -30 36 -68 76 -85 87 -16 12 -58
48 -91 79 -72 68 -236 151 -337 170 -165 32 -357 238 -357 384 0 31 71 155
107 186 81 69 73 118 -12 73z"/>
<path d="M7886 4138 c-5 -16 -5 -40 0 -55 10 -34 18 5 12 55 -4 27 -4 27 -12
0z"/>
<path d="M10185 4118 c-2 -7 -9 -39 -14 -71 -12 -69 -39 -127 -83 -183 -18
-23 -37 -49 -43 -58 -9 -16 -66 -39 -250 -103 -38 -13 -100 -28 -136 -32 -37
-5 -115 -26 -174 -47 -114 -40 -116 -41 -232 -170 -129 -144 -141 -160 -156
-195 -8 -20 -30 -54 -49 -75 -19 -22 -55 -67 -81 -101 -102 -134 -264 -149
-439 -41 -93 58 -31 -97 87 -216 190 -193 544 -24 768 366 30 51 75 87 202
157 134 74 166 88 279 120 123 36 229 93 294 158 24 23 56 50 72 58 48 25 109
192 94 259 -20 93 -78 186 -116 186 -10 0 -21 -6 -23 -12z"/>
<path d="M7888 2543 c-25 -28 -33 -51 -68 -173 -85 -305 -107 -338 -190 -295
-35 18 -44 34 -70 119 -11 35 -27 77 -35 93 -8 15 -15 55 -16 88 -3 158 -43
148 -191 -47 -88 -116 -30 -366 132 -568 29 -36 63 -86 76 -112 13 -25 33 -50
45 -53 11 -4 47 -33 80 -65 112 -111 179 -83 179 74 0 210 88 361 255 441 102
48 122 95 68 160 -47 56 -90 118 -111 160 -75 148 -127 209 -154 178z"/>
<path d="M10390 1980 c0 -11 14 -34 31 -52 31 -33 31 -33 24 -3 -12 58 -55
101 -55 55z"/>
<path d="M5004 1808 c-48 -94 -74 -172 -74 -217 0 -20 -12 -83 -26 -141 -42
-173 -51 -304 -31 -457 9 -71 17 -148 17 -171 0 -74 25 -178 102 -432 18 -62
89 -187 164 -294 19 -26 34 -59 34 -72 0 -24 0 -24 210 -24 260 0 258 -14 39
224 -31 34 -72 89 -92 122 -20 34 -43 66 -50 72 -29 25 -207 398 -226 477 -51
204 -59 493 -22 772 31 237 20 271 -45 141z"/>
<path d="M10494 1726 c-6 -24 3 -68 36 -171 63 -197 77 -540 32 -756 -17 -80
-34 -174 -38 -208 -5 -48 -16 -76 -47 -124 -22 -34 -53 -98 -68 -141 -21 -56
-42 -92 -73 -126 -48 -52 -111 -143 -121 -177 -6 -23 -6 -23 183 -23 190 0
190 0 201 47 7 26 28 72 47 103 23 38 39 81 49 135 15 78 39 160 76 260 36 95
17 482 -31 650 -16 55 -34 129 -40 165 -6 36 -23 92 -37 125 -13 33 -33 80
-42 105 -45 115 -113 189 -127 136z"/>
<path d="M9566 1491 c-4 -5 23 -41 58 -79 65 -71 129 -174 142 -227 3 -16 15
-44 26 -62 83 -138 39 -478 -80 -611 -142 -159 -536 -235 -815 -157 -42 12
-232 87 -292 115 -89 43 -133 57 -231 75 -49 10 -111 26 -139 36 -63 25 -225
59 -276 59 -22 0 -91 11 -154 25 -192 41 -230 45 -375 35 -247 -16 -498 -61
-627 -112 -51 -20 -109 -32 -205 -43 -73 -9 -156 -22 -184 -30 -232 -67 -572
130 -574 333 -2 170 10 271 40 360 66 195 -4 170 -119 -43 -11 -22 -30 -51
-41 -65 -32 -39 -73 -266 -66 -360 20 -278 66 -379 200 -447 28 -14 69 -42 92
-63 99 -91 258 -129 559 -136 211 -5 249 -2 725 63 225 30 756 46 854 25 28
-7 116 -19 196 -27 80 -9 170 -23 202 -31 31 -8 94 -21 140 -30 101 -19 142
-37 156 -69 18 -39 712 -39 730 0 11 24 91 71 162 94 109 35 302 275 352 436
43 136 44 391 3 537 -46 160 -411 478 -459 399z"/>
<path d="M11307 1423 c-23 -23 60 -226 161 -393 18 -30 40 -80 49 -110 22 -78
57 -144 119 -225 29 -38 65 -97 80 -130 15 -33 37 -76 50 -95 67 -105 25 -204
-78 -181 -71 16 -373 335 -441 467 -28 54 -159 196 -170 185 -7 -7 -12 -75
-13 -168 -1 -87 -7 -184 -13 -217 -15 -69 -7 -141 19 -184 37 -60 285 -212
410 -252 86 -27 163 -70 175 -97 10 -23 10 -23 282 -23 315 0 292 -11 249 118
-37 108 -50 681 -18 812 21 86 38 203 34 230 -8 50 -14 59 -45 69 -19 7 -41 9
-50 5 -85 -32 -496 66 -713 171 -52 25 -75 30 -87 18z"/>
<path d="M4543 1304 c-6 -3 -26 -27 -43 -53 -17 -27 -48 -61 -69 -75 -41 -29
-84 -79 -119 -139 -25 -44 -90 -124 -142 -177 -19 -19 -57 -66 -84 -105 -54
-77 -83 -113 -166 -209 -30 -35 -66 -81 -79 -103 -100 -170 -219 -33 -125 144
21 37 59 110 85 161 26 51 57 105 67 120 18 25 132 262 132 274 0 17 -42 15
-128 -8 -123 -32 -320 -37 -389 -9 -80 32 -121 -15 -122 -140 -1 -33 -7 -116
-15 -185 -28 -236 -56 -626 -56 -762 0 -54 592 -61 622 -8 19 33 98 76 202
109 38 12 88 32 110 43 65 33 252 79 365 89 149 13 168 35 111 127 -16 27 -30
57 -30 67 0 9 -9 60 -19 113 -32 156 -64 503 -56 604 9 119 -1 142 -52 122z"/>
</g>
  </g>
</svg>
