<svg xmlns="http://www.w3.org/2000/svg" viewBox="0 0 100 100" fill="none" stroke="#1a1612" stroke-width="2.2">
  <circle cx="50" cy="50" r="46"/>
  <circle cx="50" cy="50" r="32"/>
  <circle cx="50" cy="50" r="10"/>
  <g>
    <path d="M 50 8 C 60 26, 60 38, 50 50 C 40 38, 40 26, 50 8 Z"/>
    <path d="M 50 8 C 60 26, 60 38, 50 50 C 40 38, 40 26, 50 8 Z" transform="rotate(45 50 50)"/>
    <path d="M 50 8 C 60 26, 60 38, 50 50 C 40 38, 40 26, 50 8 Z" transform="rotate(90 50 50)"/>
    <path d="M 50 8 C 60 26, 60 38, 50 50 C 40 38, 40 26, 50 8 Z" transform="rotate(135 50 50)"/>
    <path d="M 50 8 C 60 26, 60 38, 50 50 C 40 38, 40 26, 50 8 Z" transform="rotate(180 50 50)"/>
    <path d="M 50 8 C 60 26, 60 38, 50 50 C 40 38, 40 26, 50 8 Z" transform="rotate(225 50 50)"/>
    <path d="M 50 8 C 60 26, 60 38, 50 50 C 40 38, 40 26, 50 8 Z" transform="rotate(270 50 50)"/>
    <path d="M 50 8 C 60 26, 60 38, 50 50 C 40 38, 40 26, 50 8 Z" transform="rotate(315 50 50)"/>
  </g>
</svg>
