<svg xmlns="http://www.w3.org/2000/svg" viewBox="0 0 200 200" fill="none" stroke="#1a1612" stroke-width="2.8" stroke-linecap="round" stroke-linejoin="round">
  <defs>
    <g id="p">
      <path d="M 96 76 C 78 70, 72 44, 100 22 C 128 44, 122 70, 104 76 Z" />
      <path d="M 98 68 C 88 64, 86 48, 100 36 C 114 48, 112 64, 102 68 Z" />
    </g>
    <g id="s">
      <path d="M 100 70 C 108 62, 113 48, 110 36 C 106 32, 102 34, 100 40 C 98 34, 94 32, 90 36 C 87 48, 92 62, 100 70 Z" />
    </g>
  </defs>
  <g>
    <use href="#s" /><use href="#s" transform="rotate(72 100 100)" />
    <use href="#s" transform="rotate(144 100 100)" /><use href="#s" transform="rotate(216 100 100)" />
    <use href="#s" transform="rotate(288 100 100)" />
  </g>
  <g transform="rotate(36 100 100)">
    <use href="#p" /><use href="#p" transform="rotate(72 100 100)" />
    <use href="#p" transform="rotate(144 100 100)" /><use href="#p" transform="rotate(216 100 100)" />
    <use href="#p" transform="rotate(288 100 100)" />
  </g>
  <circle cx="100" cy="100" r="10" />
  <circle cx="100" cy="100" r="2.4" fill="#1a1612" stroke="none" />
</svg>
